<svg width="31" height="31" viewBox="0 0 31 31" fill="none" xmlns="http://www.w3.org/2000/svg">
<path d="M23.25 10.3333C23.25 8.27792 22.4335 6.30667 20.9801 4.85327C19.5267 3.39986 17.5554 2.58334 15.5 2.58334C13.4446 2.58334 11.4733 3.39986 10.0199 4.85327C8.56652 6.30667 7.75 8.27792 7.75 10.3333C7.75 19.375 3.875 21.9583 3.875 21.9583H27.125C27.125 21.9583 23.25 19.375 23.25 10.3333Z" fill="#666666" stroke="#666666" stroke-width="2" stroke-linecap="round" stroke-linejoin="round"/>
<path d="M17.7348 27.125C17.5077 27.5165 17.1818 27.8414 16.7896 28.0673C16.3974 28.2932 15.9528 28.4121 15.5002 28.4121C15.0476 28.4121 14.603 28.2932 14.2108 28.0673C13.8187 27.8414 13.4927 27.5165 13.2656 27.125" stroke="#525256" stroke-width="2" stroke-linecap="round" stroke-linejoin="round"/>
</svg>
